<?xml version="1.0" standalone="no"?>
<!DOCTYPE svg PUBLIC "-//W3C//DTD SVG 20010904//EN"
 "http://www.w3.org/TR/2001/REC-SVG-20010904/DTD/svg10.dtd">
<svg version="1.0" xmlns="http://www.w3.org/2000/svg"
 width="472.000000pt" height="472.000000pt" viewBox="0 0 472.000000 472.000000"
 preserveAspectRatio="xMidYMid meet">
<metadata>
Created by potrace 1.14, written by Peter Selinger 2001-2017
</metadata>
<g transform="translate(0.000000,472.000000) scale(0.100000,-0.100000)"
fill="#000000" stroke="none">
<path d="M2412 4625 c-16 -7 -49 -31 -71 -53 -56 -54 -105 -76 -175 -78 -67
-2 -101 8 -168 49 -35 22 -64 31 -102 34 -46 2 -59 -1 -94 -27 -24 -17 -52
-51 -66 -77 -59 -117 -190 -166 -321 -120 -66 23 -134 9 -182 -38 -17 -18 -43
-84 -43 -112 0 -13 -9 -42 -21 -65 -44 -86 -127 -134 -224 -130 -61 3 -121
-18 -156 -54 l-34 -35 0 -107 c0 -92 -3 -113 -23 -152 -30 -57 -92 -104 -161
-120 -61 -14 -130 -74 -132 -112 0 -13 -2 -33 -3 -45 -2 -13 9 -48 24 -78 57
-118 33 -223 -69 -297 -111 -80 -114 -93 -57 -189 40 -67 50 -123 34 -187 -9
-37 -25 -60 -75 -110 -69 -69 -83 -94 -83 -150 0 -44 17 -72 91 -143 92 -90
102 -180 34 -290 -62 -101 -46 -179 49 -244 20 -14 35 -21 32 -16 -3 5 5 4 19
-2 14 -7 25 -15 25 -19 0 -5 5 -8 10 -8 6 0 21 -10 33 -23 27 -27 60 -77 51
-77 -4 0 -1 -7 6 -15 15 -18 15 -100 1 -138 -18 -46 -13 -101 12 -138 24 -36
94 -82 114 -75 6 3 14 2 17 -1 3 -3 24 -7 47 -9 23 -2 44 -6 47 -9 6 -5 -17
-6 -195 -6 -62 0 -114 -3 -114 -7 -1 -4 -2 -230 -3 -502 l-1 -495 65 -5 c36
-3 76 -4 90 -2 l25 4 0 196 c0 108 3 200 8 203 12 9 57 -2 57 -13 0 -8 26 -73
75 -183 7 -16 30 -69 50 -117 36 -85 38 -87 73 -90 21 -2 63 -1 94 0 l57 4
-26 56 c-14 32 -47 107 -73 167 -26 61 -57 131 -68 157 l-21 46 32 22 c41 28
81 83 97 135 15 49 22 57 43 50 9 -4 13 -13 10 -23 -4 -13 -2 -13 9 2 8 10 19
16 24 13 6 -3 10 -142 11 -346 1 -187 4 -344 7 -350 4 -7 15 -7 30 -1 13 5 26
6 29 3 6 -5 34 -5 287 -4 102 1 105 2 105 24 l0 22 -207 -1 -208 0 -1 35 c-5
277 2 615 12 625 9 8 10 8 5 -1 -4 -8 -2 -13 6 -13 10 0 10 -2 -1 -9 -11 -7
-11 -9 0 -14 12 -5 12 -7 0 -15 -7 -5 -9 -12 -5 -15 5 -3 9 -132 9 -286 l0
-281 228 0 227 0 0 73 0 73 -135 -1 c-87 -1 -135 3 -136 10 -4 32 -4 292 -1
302 6 19 79 17 79 -2 0 -8 -4 -15 -9 -15 -4 0 -8 5 -8 11 0 8 -4 9 -13 0 -8
-6 -17 -8 -20 -4 -4 3 -7 -5 -7 -19 0 -23 3 -25 47 -25 37 0 50 -5 66 -24 11
-13 21 -23 23 -21 2 2 20 -2 40 -7 19 -5 45 -7 57 -4 12 3 32 5 45 6 12 1 22
5 22 9 0 4 6 8 14 8 8 0 16 3 19 8 2 4 2 2 1 -5 -2 -7 3 -10 14 -6 15 6 16 5
2 -12 -9 -11 -10 -16 -3 -11 7 4 13 4 14 -1 0 -4 2 -15 4 -23 11 -45 48 -216
62 -290 19 -102 24 -111 63 -100 17 5 32 5 34 2 2 -4 27 -5 55 -4 44 3 51 7
51 25 0 21 -4 22 -64 19 -36 -1 -67 1 -70 6 -4 6 -15 56 -40 185 -4 15 -9 39
-12 55 -4 15 -7 41 -9 57 -1 17 -5 37 -8 45 -14 36 -15 77 0 77 8 0 12 -6 8
-15 -3 -7 -2 -19 2 -25 8 -13 11 -25 18 -72 3 -16 12 -59 20 -95 18 -81 23
-105 31 -152 6 -36 9 -38 43 -39 94 -2 134 0 141 8 6 7 19 63 34 143 10 56 18
68 42 66 14 -2 33 -11 42 -21 12 -13 13 -16 2 -9 -13 7 -13 5 -2 -8 7 -9 14
-32 16 -50 2 -19 5 -39 8 -44 3 -5 11 -39 18 -77 7 -37 17 -70 22 -73 18 -12
161 -5 170 8 15 25 1 32 -65 30 -36 -1 -68 1 -70 5 -3 5 -8 32 -12 60 -3 29
-10 66 -15 83 -6 21 -5 30 3 30 9 0 9 2 0 8 -17 11 -24 70 -8 76 9 3 12 -2 10
-16 -3 -12 -1 -26 4 -32 5 -6 11 -27 14 -46 3 -19 8 -48 12 -65 4 -16 8 -39 9
-50 1 -17 10 -21 71 -25 98 -7 112 -4 118 28 4 15 13 59 22 97 9 39 19 86 22
105 3 19 8 36 12 38 4 1 6 16 5 32 -1 17 2 27 7 24 5 -3 6 -11 2 -17 -4 -8 -1
-7 9 1 14 11 21 11 42 -3 14 -10 23 -22 19 -28 -3 -5 -1 -7 5 -3 6 3 13 2 17
-4 3 -5 15 -10 26 -10 10 0 19 -5 19 -11 0 -5 5 -7 10 -4 6 3 10 0 10 -7 0
-11 2 -10 9 0 6 10 10 9 14 -7 3 -12 0 -21 -6 -21 -9 0 -9 -2 -1 -8 8 -5 11
-51 10 -140 l-1 -132 91 0 c88 0 91 1 90 22 -1 20 -6 22 -66 24 -36 1 -67 2
-70 3 -3 0 -4 22 -3 48 4 90 5 138 3 148 -6 26 1 75 11 75 7 0 9 -10 7 -25 -3
-14 -1 -25 5 -25 5 0 4 -7 -3 -15 -7 -8 -9 -15 -4 -15 5 0 9 -38 8 -85 l-1
-86 91 3 91 3 1 110 c1 61 2 115 4 120 1 6 1 15 0 20 -7 31 -3 51 10 57 13 6
13 7 0 7 -15 1 -16 12 -9 98 4 42 26 50 119 47 103 -4 102 -4 87 -22 -10 -13
-9 -14 9 -4 11 6 26 7 34 2 7 -4 18 -6 24 -4 8 3 12 -64 13 -238 1 -134 2
-249 3 -255 0 -10 52 -13 225 -13 l225 0 0 23 0 23 -205 -2 -206 -1 1 238 c1
199 3 237 15 226 9 -8 10 -16 3 -25 -7 -8 -7 -12 1 -12 13 0 10 -22 -4 -32 -7
-5 -7 -8 0 -8 7 0 10 -64 10 -177 l0 -178 150 -5 c82 -3 185 -4 228 -2 l77 4
0 72 0 71 -137 0 -138 0 0 135 c0 74 4 141 9 147 5 8 4 13 -2 13 -6 0 -9 7 -5
16 4 10 14 14 29 11 12 -2 28 0 35 4 7 4 18 5 23 1 15 -9 46 -10 51 -1 3 4 14
5 24 2 18 -5 20 1 19 71 -1 65 -3 77 -17 75 -9 -1 -52 0 -96 0 -67 2 -76 4
-55 13 14 6 30 10 35 9 6 -1 4 4 -4 11 -11 10 -14 10 -18 1 -9 -24 -21 -13
-25 21 -2 21 0 32 6 29 5 -4 7 1 3 11 -4 10 -3 15 3 11 6 -3 10 -2 10 4 0 14
67 44 79 36 6 -3 11 -2 11 3 0 5 7 9 15 9 8 0 15 -4 15 -9 0 -4 -7 -8 -15 -8
-8 0 -15 -5 -15 -11 0 -8 -5 -8 -15 1 -22 19 -18 3 6 -21 11 -11 19 -14 17 -7
-2 7 7 23 20 36 27 27 21 26 55 13 15 -6 27 -7 27 -2 0 5 11 8 25 6 14 -1 25
1 25 5 0 4 7 7 15 7 8 0 15 -4 15 -9 0 -4 -4 -8 -9 -8 -4 0 -6 -19 -4 -41 4
-27 2 -39 -5 -35 -6 3 -14 1 -18 -5 -4 -7 -3 -9 4 -5 14 8 23 -7 29 -47 6 -44
47 -110 99 -164 24 -24 41 -49 38 -55 -4 -6 -2 -8 3 -5 13 8 65 -42 57 -54 -3
-5 1 -6 9 -3 8 3 18 1 22 -5 3 -6 15 -11 27 -11 13 0 18 -5 15 -14 -3 -8 7
-31 23 -53 15 -21 31 -55 35 -76 8 -40 16 -45 35 -22 23 27 15 91 -16 137 -16
24 -27 46 -26 50 1 5 -2 7 -7 5 -10 -3 -185 173 -225 226 -15 21 -29 49 -30
63 0 13 -3 24 -6 24 -3 0 -7 12 -8 27 -1 16 -4 38 -6 50 -3 13 -1 23 5 23 5 0
9 5 9 11 0 5 -5 7 -11 3 -8 -4 -9 1 -4 17 9 30 35 68 35 52 0 -7 -4 -14 -8
-17 -8 -4 -7 -101 1 -136 16 -74 49 -119 195 -266 130 -130 151 -167 138 -239
-11 -59 -62 -88 -109 -63 -37 20 -46 41 -47 111 l0 67 -90 0 -90 0 0 -75 c0
-80 18 -141 54 -180 25 -27 93 -64 131 -71 44 -8 138 -8 160 0 86 31 134 68
159 121 37 77 22 202 -32 275 -28 38 -179 216 -225 265 -60 64 -79 138 -49
191 13 24 59 37 66 20 3 -7 5 -6 5 2 1 20 47 -15 60 -46 5 -15 12 -43 13 -62
l3 -35 88 -1 87 0 0 50 c0 78 -17 124 -63 170 -66 65 -189 94 -285 67 -24 -7
-31 -7 -26 2 4 7 -3 2 -15 -10 -23 -25 -37 -30 -25 -11 4 6 3 8 -4 4 -5 -3
-13 0 -15 6 -4 10 -6 10 -6 0 -1 -7 -6 -10 -13 -6 -7 4 -8 3 -4 -5 4 -6 12 -9
17 -6 5 4 9 3 9 -1 0 -11 -48 -52 -54 -46 -3 3 -6 -4 -6 -16 0 -11 -3 -23 -7
-25 -5 -3 -8 14 -8 36 -1 32 4 46 23 61 12 10 21 21 18 23 -3 3 -13 -2 -22
-12 -12 -12 -19 -13 -24 -5 -12 20 11 89 47 139 1 2 8 -1 16 -7 9 -8 17 -8 27
0 12 8 12 9 -2 4 -26 -8 -33 13 -11 32 20 18 77 52 87 52 3 0 6 -5 6 -11 0 -5
-4 -8 -8 -5 -4 2 -8 -4 -9 -14 -2 -18 -1 -18 16 -2 10 9 16 20 14 23 -5 10 25
19 42 13 8 -4 15 -1 15 5 0 6 5 11 11 11 5 0 7 -6 4 -12 -4 -7 5 2 20 20 15
18 31 30 36 27 5 -4 6 0 3 8 -3 9 4 22 18 31 12 9 17 16 10 16 -9 0 -10 5 -4
17 5 10 8 29 6 42 -3 18 -1 21 9 15 7 -5 4 -1 -7 9 -16 15 -18 22 -9 37 14 21
8 30 -19 30 -15 0 -18 5 -13 20 4 11 2 20 -4 20 -6 0 -11 5 -11 11 0 5 5 7 10
4 6 -3 10 -1 10 4 0 6 -8 11 -17 11 -11 0 -14 3 -8 8 6 4 11 15 12 25 2 50 4
57 12 57 10 0 8 -40 -2 -56 -3 -5 1 -18 8 -28 13 -17 14 -17 21 7 3 15 9 25
13 24 3 -1 7 1 9 6 5 17 -14 8 -24 -12 -6 -11 -14 -18 -17 -14 -4 3 0 17 8 30
9 14 11 23 5 23 -6 0 -9 4 -5 9 3 5 1 12 -5 16 -12 7 -4 25 11 25 6 0 8 -3 5
-8 -6 -11 22 -47 31 -38 4 4 1 11 -7 16 -8 6 -11 10 -6 10 5 0 2 8 -8 18 -15
18 -15 20 1 39 10 11 45 37 78 58 33 21 63 42 66 48 4 5 17 10 30 11 14 1 23
7 21 15 -2 9 3 11 13 7 9 -3 13 -2 10 4 -3 6 -1 10 6 10 7 0 10 3 7 6 -9 9
-49 -16 -43 -26 3 -5 -4 -8 -15 -7 -24 2 -26 12 -5 21 8 3 15 11 15 18 0 9 -3
8 -10 -2 -5 -8 -10 -10 -10 -5 1 17 27 45 35 37 5 -4 4 0 -1 8 -5 8 -10 33
-11 55 -4 60 -6 65 -15 65 -4 0 -8 5 -8 10 0 7 6 7 20 0 16 -8 18 -8 14 4 -3
8 -14 13 -25 11 -13 -3 -23 3 -29 18 -5 12 -9 18 -10 12 0 -5 -5 -3 -10 5 -12
18 -13 33 -2 26 4 -2 16 2 27 10 10 8 14 14 9 14 -6 0 -15 -5 -20 -10 -17 -17
-32 9 -37 63 -5 47 -5 49 19 43 14 -4 24 -2 24 4 0 5 -3 9 -7 9 -21 -3 -34 2
-28 11 4 6 12 7 18 3 7 -4 6 0 -2 10 -9 12 -10 17 -2 17 7 0 10 4 6 9 -8 13
53 74 68 68 9 -4 9 -6 0 -6 -7 -1 -13 -6 -13 -12 0 -8 4 -8 14 0 8 7 12 21 9
34 -4 15 -2 19 5 12 5 -5 12 -18 14 -28 1 -10 7 -17 12 -17 5 1 13 -4 18 -12
8 -10 9 -10 5 2 -2 8 -10 14 -16 12 -6 -1 -12 7 -12 18 -1 11 -2 26 -3 33 -1
6 4 11 9 10 11 -2 16 25 16 92 0 61 -4 84 -13 79 -7 -5 -12 10 -9 29 0 4 -5 6
-11 5 -7 -2 -11 4 -10 12 2 8 0 12 -3 8 -11 -11 -45 10 -45 27 0 8 -6 15 -13
15 -13 0 -43 40 -39 53 1 4 -3 7 -10 7 -6 0 -3 9 7 20 10 11 14 20 9 20 -5 0
4 9 21 20 25 17 26 19 7 17 -11 0 -19 -3 -17 -6 3 -2 -4 -11 -15 -18 -11 -8
-18 -19 -15 -24 4 -5 1 -9 -6 -9 -6 0 -9 8 -6 19 2 10 0 25 -4 34 -6 10 -4 21
7 31 8 9 11 16 5 16 -6 0 -11 7 -11 15 0 18 16 20 23 3 4 -10 6 -10 6 -1 1 6
-4 15 -9 18 -13 8 5 43 34 68 11 10 15 16 8 12 -12 -6 -12 -3 -1 16 14 26 19
119 7 119 -4 0 -8 7 -8 15 0 8 -4 15 -9 15 -5 0 -13 9 -16 20 -4 11 -10 18
-14 15 -4 -2 -17 4 -28 15 -12 10 -23 17 -25 14 -3 -2 -17 2 -31 9 -15 8 -23
17 -19 21 4 5 0 7 -8 6 -27 -4 -41 0 -35 10 3 6 1 10 -5 10 -6 0 -8 5 -4 12 4
7 3 8 -5 4 -20 -13 -59 45 -66 99 -4 32 -3 33 22 29 15 -3 25 -3 22 1 -4 3
-17 8 -29 10 -32 6 -33 8 -19 56 40 146 -28 237 -180 241 -17 1 -31 5 -31 10
0 5 -4 7 -9 4 -12 -8 -82 28 -104 52 -18 19 -18 21 0 31 10 6 13 11 6 11 -6 0
-15 -4 -18 -10 -3 -5 -9 -10 -13 -10 -12 0 -31 51 -25 67 4 11 2 14 -5 9 -9
-5 -26 73 -27 129 0 6 -2 12 -5 15 -3 3 -16 18 -28 34 -12 16 -22 25 -22 21 0
-5 -9 0 -21 11 -16 15 -34 18 -87 16 -170 -6 -182 -5 -233 18 -27 13 -49 29
-49 37 0 7 -5 12 -11 10 -6 -1 -25 22 -42 52 -17 30 -24 51 -16 46 12 -7 12
-6 -1 10 -8 11 -23 27 -32 37 -10 10 -18 23 -18 28 0 6 -3 9 -7 8 -5 -1 -25 6
-46 15 -48 21 -102 15 -169 -19 -29 -15 -69 -28 -88 -30 -19 -1 -39 -3 -45 -5
-5 -1 -27 1 -47 5 -35 8 -43 16 -39 39 1 5 -3 6 -9 2 -6 -3 -8 -11 -5 -16 4
-5 -5 -4 -20 3 -14 6 -24 17 -21 24 3 9 -1 11 -11 7 -12 -5 -15 -2 -10 10 4
11 2 14 -8 11 -13 -5 -42 32 -37 49 1 4 -1 6 -5 5 -5 -1 -23 6 -41 15 -42 23
-110 28 -150 12z m1848 -3009 c0 -11 -19 -15 -25 -6 -3 5 1 10 9 10 9 0 16 -2
16 -4z m-3439 -616 c32 -18 48 -73 46 -154 -4 -116 -33 -142 -152 -134 l-50 3
0 140 c-1 77 1 143 3 148 5 11 131 8 153 -3z m1602 -524 c4 -10 1 -13 -8 -9
-8 3 -12 9 -9 14 7 12 11 11 17 -5z m-418 -27 c1 -11 -1 -22 -5 -24 -3 -2 -7
10 -8 28 -2 17 1 28 5 24 4 -4 7 -17 8 -28z"/>
<path d="M692 968 c2 -16 12 -24 37 -29 50 -10 68 -47 70 -141 1 -45 4 -56 15
-52 17 6 30 71 27 129 -2 44 -19 104 -29 106 -4 1 -33 3 -65 5 -55 3 -58 2
-55 -18z"/>
<path d="M3319 4348 c-5 -18 -6 -38 -1 -34 7 8 12 36 6 36 -2 0 -4 -1 -5 -2z"/>
<path d="M3753 4115 c0 -8 4 -12 9 -9 5 3 6 10 3 15 -9 13 -12 11 -12 -6z"/>
<path d="M3755 4080 c-3 -5 -1 -10 4 -10 6 0 11 5 11 10 0 6 -2 10 -4 10 -3 0
-8 -4 -11 -10z"/>
<path d="M3780 4065 c0 -2 6 -8 13 -14 10 -8 14 -7 14 2 0 8 -6 14 -14 14 -7
0 -13 -1 -13 -2z"/>
<path d="M3827 4019 c7 -7 15 -10 18 -7 3 3 -2 9 -12 12 -14 6 -15 5 -6 -5z"/>
<path d="M3781 4008 c-1 -10 4 -18 10 -18 5 0 7 -6 3 -12 -4 -7 -3 -9 1 -5 12
10 16 39 5 32 -5 -3 -11 1 -13 7 -3 8 -6 6 -6 -4z"/>
<path d="M3880 3966 c0 -2 8 -10 18 -17 15 -13 16 -12 3 4 -13 16 -21 21 -21
13z"/>
<path d="M3824 3942 c4 -3 14 -7 22 -8 9 -1 13 0 10 4 -4 3 -14 7 -22 8 -9 1
-13 0 -10 -4z"/>
<path d="M4170 3721 c0 -6 4 -13 10 -16 6 -3 7 1 4 9 -7 18 -14 21 -14 7z"/>
<path d="M4164 3683 c4 -4 16 -8 28 -10 12 -2 19 -1 16 2 -3 3 -16 8 -28 10
-12 2 -20 1 -16 -2z"/>
<path d="M4215 3640 c3 -5 8 -10 11 -10 2 0 4 5 4 10 0 6 -5 10 -11 10 -5 0
-7 -4 -4 -10z"/>
<path d="M4150 3621 c0 -10 19 -25 25 -20 1 2 -3 10 -11 17 -8 7 -14 8 -14 3z"/>
<path d="M4193 3610 c1 -21 10 -18 13 5 1 8 -2 15 -6 15 -5 0 -8 -9 -7 -20z"/>
<path d="M4250 3621 c0 -6 4 -13 10 -16 6 -3 7 1 4 9 -7 18 -14 21 -14 7z"/>
<path d="M4177 3578 c2 -5 10 -8 18 -8 8 0 16 3 18 8 3 4 -5 7 -18 7 -13 0
-21 -3 -18 -7z"/>
<path d="M4193 3535 c-8 -22 5 -31 20 -15 10 10 9 11 -2 5 -11 -6 -13 -4 -8 8
3 10 4 17 1 17 -2 0 -7 -7 -11 -15z"/>
<path d="M4156 3523 c-6 -14 -5 -15 5 -6 7 7 10 15 7 18 -3 3 -9 -2 -12 -12z"/>
<path d="M4164 3499 c-5 -8 -3 -9 6 -4 10 6 12 4 7 -8 -3 -10 -2 -17 3 -17 13
0 13 27 1 35 -5 3 -13 0 -17 -6z"/>
<path d="M4233 3495 c0 -8 4 -12 9 -9 5 3 6 10 3 15 -9 13 -12 11 -12 -6z"/>
<path d="M4211 3484 c0 -11 3 -14 6 -6 3 7 2 16 -1 19 -3 4 -6 -2 -5 -13z"/>
<path d="M4180 3456 c0 -2 7 -7 16 -10 8 -3 12 -2 9 4 -6 10 -25 14 -25 6z"/>
<path d="M4446 3242 c-3 -5 1 -9 9 -9 8 0 12 4 9 9 -3 4 -7 8 -9 8 -2 0 -6 -4
-9 -8z"/>
<path d="M4451 3154 c0 -11 3 -14 6 -6 3 7 2 16 -1 19 -3 4 -6 -2 -5 -13z"/>
<path d="M4474 3146 c1 -8 5 -18 8 -22 4 -3 5 1 4 10 -1 8 -5 18 -8 22 -4 3
-5 -1 -4 -10z"/>
<path d="M4444 3115 c-4 -8 -10 -12 -15 -9 -5 3 -12 -3 -15 -13 -3 -10 -10
-27 -16 -38 -10 -18 -9 -19 5 -6 10 7 17 22 17 33 0 10 4 17 9 13 6 -3 15 4
21 15 6 11 8 20 5 20 -3 0 -8 -7 -11 -15z"/>
<path d="M4380 3070 c-6 -11 -8 -20 -6 -20 3 0 10 9 16 20 6 11 8 20 6 20 -3
0 -10 -9 -16 -20z"/>
<path d="M4450 3078 c0 -4 4 -8 9 -8 6 0 12 4 15 8 3 5 -1 9 -9 9 -8 0 -15 -4
-15 -9z"/>
<path d="M4434 3062 c4 -7 2 -12 -3 -12 -6 0 -11 -7 -11 -15 0 -9 -6 -12 -15
-9 -8 4 -15 4 -15 1 0 -3 6 -7 14 -10 19 -7 51 39 34 49 -7 4 -8 3 -4 -4z"/>
<path d="M4450 3011 c0 -7 -5 -9 -12 -5 -7 5 -8 3 -3 -5 5 -9 10 -10 18 -2 6
6 8 14 4 18 -4 3 -7 1 -7 -6z"/>
<path d="M4392 2996 c7 -8 15 -12 17 -11 5 6 -10 25 -20 25 -5 0 -4 -6 3 -14z"/>
<path d="M4370 2979 c0 -5 -4 -7 -10 -4 -6 3 -7 -1 -4 -10 4 -9 7 -15 8 -13 1
2 8 11 15 21 9 11 10 17 2 17 -6 0 -11 -5 -11 -11z"/>
<path d="M4493 2931 c0 -11 5 -18 9 -15 4 3 5 11 1 19 -7 21 -12 19 -10 -4z"/>
<path d="M4415 2920 c3 -5 8 -10 11 -10 2 0 4 5 4 10 0 6 -5 10 -11 10 -5 0
-7 -4 -4 -10z"/>
<path d="M4390 2900 c0 -5 5 -10 10 -10 6 0 10 5 10 10 0 6 -4 10 -10 10 -5 0
-10 -4 -10 -10z"/>
<path d="M4495 2880 c-3 -5 -1 -10 4 -10 6 0 11 5 11 10 0 6 -2 10 -4 10 -3 0
-8 -4 -11 -10z"/>
<path d="M4445 2819 c-4 -6 -5 -12 -2 -15 2 -3 7 2 10 11 7 17 1 20 -8 4z"/>
<path d="M4530 2740 c0 -5 5 -10 11 -10 5 0 7 5 4 10 -3 6 -8 10 -11 10 -2 0
-4 -4 -4 -10z"/>
<path d="M4535 2700 c3 -5 8 -10 11 -10 2 0 4 5 4 10 0 6 -5 10 -11 10 -5 0
-7 -4 -4 -10z"/>
<path d="M4635 2669 c-4 -6 -5 -12 -2 -15 2 -3 7 2 10 11 7 17 1 20 -8 4z"/>
<path d="M4552 2651 c7 -9 13 -18 15 -20 1 -2 1 5 0 16 0 11 -7 20 -14 20 -10
0 -10 -4 -1 -16z"/>
<path d="M4560 2599 c-25 -21 -36 -49 -18 -49 6 0 7 7 4 16 -5 12 -1 14 17 10
12 -3 16 -3 9 0 -10 5 -9 10 4 25 22 25 15 24 -16 -2z"/>
<path d="M4525 2600 c-3 -6 1 -7 9 -4 18 7 21 14 7 14 -6 0 -13 -4 -16 -10z"/>
<path d="M4510 2540 c0 -6 7 -10 15 -10 8 0 15 2 15 4 0 2 -7 6 -15 10 -8 3
-15 1 -15 -4z"/>
<path d="M4540 2520 c-9 -6 -10 -10 -3 -10 6 0 15 5 18 10 8 12 4 12 -15 0z"/>
<path d="M4431 2474 c0 -11 3 -14 6 -6 3 7 2 16 -1 19 -3 4 -6 -2 -5 -13z"/>
<path d="M4462 2478 c-7 -7 -12 -17 -12 -22 0 -6 7 -2 16 9 13 17 16 18 25 5
9 -12 10 -12 7 -1 -6 20 -21 24 -36 9z"/>
<path d="M4510 2461 c0 -6 4 -13 10 -16 6 -3 7 1 4 9 -7 18 -14 21 -14 7z"/>
<path d="M4570 2459 c0 -5 5 -7 10 -4 6 3 10 8 10 11 0 2 -4 4 -10 4 -5 0 -10
-5 -10 -11z"/>
<path d="M4416 2445 c10 -8 26 -14 34 -15 8 0 2 7 -14 15 -36 19 -45 19 -20 0z"/>
<path d="M4473 2428 c-2 -18 0 -20 7 -8 12 18 13 30 2 30 -4 0 -9 -10 -9 -22z"/>
<path d="M4406 2425 c4 -8 11 -15 16 -15 6 0 5 6 -2 15 -7 8 -14 15 -16 15 -2
0 -1 -7 2 -15z"/>
<path d="M4493 2397 c-2 -16 0 -18 6 -8 5 7 14 10 20 7 6 -4 11 -5 11 -2 0 3
-8 10 -18 15 -14 8 -18 5 -19 -12z"/>
<path d="M4428 2379 c-20 -11 -24 -29 -7 -29 5 0 7 5 3 11 -4 7 0 9 14 5 11
-4 23 -2 27 3 4 7 -1 8 -11 4 -12 -4 -15 -3 -10 5 9 14 6 14 -16 1z"/>
<path d="M4370 2359 c0 -5 5 -7 10 -4 6 3 10 8 10 11 0 2 -4 4 -10 4 -5 0 -10
-5 -10 -11z"/>
<path d="M4483 2358 c-11 -19 -13 -39 -1 -32 5 3 7 9 4 12 -3 3 -1 11 5 19 6
7 9 13 6 13 -3 0 -9 -6 -14 -12z"/>
<path d="M4515 2361 c-3 -5 -2 -12 3 -15 5 -3 9 1 9 9 0 17 -3 19 -12 6z"/>
<path d="M4384 2339 c-4 -8 -3 -9 4 -5 8 5 12 -1 12 -14 0 -13 -4 -19 -12 -14
-7 4 -8 3 -4 -5 10 -16 26 -4 26 19 0 23 -16 35 -26 19z"/>
<path d="M4430 2321 c0 -11 4 -22 9 -25 4 -3 6 6 3 19 -5 30 -12 33 -12 6z"/>
<path d="M4496 2287 c3 -10 9 -15 12 -12 3 3 0 11 -7 18 -10 9 -11 8 -5 -6z"/>
<path d="M4415 2260 c-3 -5 0 -12 6 -16 8 -5 9 -3 4 6 -6 10 -4 12 8 7 9 -3
18 -3 21 1 3 4 -4 8 -14 9 -11 1 -22 -2 -25 -7z"/>
<path d="M4473 2231 c0 -11 5 -18 9 -15 4 3 5 11 1 19 -7 21 -12 19 -10 -4z"/>
<path d="M4513 2185 c0 -8 4 -12 9 -9 5 3 6 10 3 15 -9 13 -12 11 -12 -6z"/>
<path d="M4487 2159 c7 -7 15 -10 18 -7 3 3 -2 9 -12 12 -14 6 -15 5 -6 -5z"/>
<path d="M4480 2095 c-7 -9 -10 -18 -7 -21 3 -3 10 4 17 15 13 25 8 27 -10 6z"/>
<path d="M4514 2050 c0 -24 4 -37 13 -37 8 0 9 4 3 12 -10 11 -9 33 2 51 4 6
2 11 -5 11 -8 0 -13 -15 -13 -37z"/>
<path d="M4494 1978 c-3 -5 0 -7 8 -6 7 2 12 -2 11 -9 -3 -12 22 -12 34 1 4 4
1 6 -7 4 -8 -1 -14 2 -13 8 2 13 -25 15 -33 2z"/>
<path d="M4470 1963 c0 -6 8 -17 18 -24 16 -13 16 -13 2 6 -8 11 -16 22 -17
24 -2 2 -3 0 -3 -6z"/>
<path d="M4428 1953 c6 -2 10 -9 7 -14 -4 -5 2 -6 12 -3 16 5 16 4 -1 -10 -11
-9 -15 -16 -9 -16 6 0 16 6 22 14 10 12 8 17 -8 25 -11 6 -23 11 -28 10 -4 0
-2 -3 5 -6z"/>
<path d="M4385 1920 c-3 -5 -1 -10 4 -10 6 0 11 5 11 10 0 6 -2 10 -4 10 -3 0
-8 -4 -11 -10z"/>
<path d="M4338 1893 c6 -2 9 -10 6 -15 -4 -7 -2 -8 5 -4 13 9 5 26 -12 25 -9
0 -8 -2 1 -6z"/>
<path d="M4370 1885 c0 -8 4 -15 10 -15 5 0 7 7 4 15 -4 8 -8 15 -10 15 -2 0
-4 -7 -4 -15z"/>
<path d="M4402 1887 c10 -8 14 -18 10 -22 -4 -5 -1 -5 6 -1 17 10 15 14 -10
26 -21 10 -21 10 -6 -3z"/>
<path d="M4458 1888 c5 -5 16 -8 23 -6 8 3 3 7 -10 11 -17 4 -21 3 -13 -5z"/>
<path d="M4316 1875 c5 -11 2 -14 -12 -9 -14 4 -12 0 6 -15 14 -11 30 -21 35
-20 6 0 2 4 -7 10 -9 5 -15 16 -12 23 3 8 1 17 -5 21 -7 3 -8 0 -5 -10z"/>
<path d="M4348 1853 c6 -2 18 -2 25 0 6 3 1 5 -13 5 -14 0 -19 -2 -12 -5z"/>
<path d="M4270 1840 c0 -5 5 -10 10 -10 6 0 10 5 10 10 0 6 -4 10 -10 10 -5 0
-10 -4 -10 -10z"/>
<path d="M4405 1839 c-3 -4 2 -6 10 -5 21 3 28 13 10 13 -9 0 -18 -4 -20 -8z"/>
<path d="M4295 1821 c-3 -6 3 -9 14 -8 11 0 17 5 15 9 -7 11 -22 10 -29 -1z"/>
<path d="M4350 1809 c0 -5 5 -7 10 -4 6 3 10 8 10 11 0 2 -4 4 -10 4 -5 0 -10
-5 -10 -11z"/>
<path d="M4300 1796 c0 -2 11 -6 25 -8 13 -3 22 -1 19 3 -5 9 -44 13 -44 5z"/>
<path d="M4310 1770 c-9 -6 -10 -10 -3 -10 6 0 15 5 18 10 8 12 4 12 -15 0z"/>
<path d="M4340 1760 c-8 -5 -10 -10 -5 -10 6 0 17 5 25 10 8 5 11 10 5 10 -5
0 -17 -5 -25 -10z"/>
<path d="M4366 1742 c-3 -5 1 -9 9 -9 8 0 12 4 9 9 -3 4 -7 8 -9 8 -2 0 -6 -4
-9 -8z"/>
<path d="M4290 1720 c0 -5 5 -10 10 -10 6 0 10 5 10 10 0 6 -4 10 -10 10 -5 0
-10 -4 -10 -10z"/>
<path d="M4267 1673 c6 -16 5 -17 -13 -3 -18 14 -18 14 -5 -2 7 -10 17 -15 22
-12 12 7 11 34 -1 34 -5 0 -6 -8 -3 -17z"/>
<path d="M4310 1663 c0 -5 5 -15 10 -23 7 -12 9 -10 7 8 -1 19 -17 33 -17 15z"/>
<path d="M4356 1642 c-3 -5 1 -9 9 -9 8 0 12 4 9 9 -3 4 -7 8 -9 8 -2 0 -6 -4
-9 -8z"/>
<path d="M4284 1606 c-14 -11 -16 -18 -8 -26 9 -9 14 -9 19 1 5 8 4 10 -3 5
-19 -11 -14 5 6 20 9 7 14 14 11 14 -3 0 -14 -6 -25 -14z"/>
<path d="M4306 1562 c-3 -5 1 -9 9 -9 8 0 15 4 15 9 0 4 -4 8 -9 8 -6 0 -12
-4 -15 -8z"/>
<path d="M4292 1531 c-11 -7 -11 -9 0 -14 9 -3 15 1 15 9 0 8 -1 14 -1 14 -1
0 -7 -4 -14 -9z"/>
<path d="M4275 1501 c-9 -15 15 -25 28 -12 9 9 7 10 -7 5 -13 -5 -17 -4 -12 4
4 7 5 12 2 12 -3 0 -7 -4 -11 -9z"/>
<path d="M4268 1448 c-10 -26 -8 -33 12 -34 11 -1 17 2 14 7 -2 4 -12 5 -22 2
-15 -6 -15 -5 -3 10 8 10 12 20 9 23 -3 3 -8 -1 -10 -8z"/>
<path d="M4333 1445 c0 -8 4 -12 9 -9 5 3 6 10 3 15 -9 13 -12 11 -12 -6z"/>
<path d="M4214 1399 c-10 -17 9 -28 31 -18 18 9 18 9 -3 5 -17 -3 -22 -1 -18
10 6 17 0 19 -10 3z"/>
<path d="M4335 1380 c3 -5 8 -10 11 -10 2 0 4 5 4 10 0 6 -5 10 -11 10 -5 0
-7 -4 -4 -10z"/>
<path d="M4185 1360 c-3 -6 1 -7 9 -4 18 7 21 14 7 14 -6 0 -13 -4 -16 -10z"/>
<path d="M4256 1353 c-6 -14 -5 -15 5 -6 7 7 10 15 7 18 -3 3 -9 -2 -12 -12z"/>
<path d="M4145 1347 c-14 -11 -15 -16 -5 -22 9 -6 11 -4 5 5 -6 10 -3 12 13 8
15 -4 19 -2 15 8 -6 17 -5 17 -28 1z"/>
<path d="M4043 1335 c-3 -9 -3 -18 -1 -21 3 -3 8 4 11 16 6 23 -1 27 -10 5z"/>
<path d="M4196 1342 c-3 -4 4 -9 15 -9 23 -2 25 3 4 10 -8 4 -16 3 -19 -1z"/>
<path d="M4110 1329 c0 -5 -6 -7 -12 -3 -7 4 -9 3 -5 -1 13 -15 36 -14 30 1
-6 17 -13 18 -13 3z"/>
<path d="M4021 1319 c-1 -8 8 -25 18 -36 11 -12 17 -24 13 -29 -4 -4 -1 -4 6
0 10 6 10 11 1 22 -8 10 -8 14 0 14 6 0 11 5 11 11 0 8 -5 8 -15 -1 -12 -10
-16 -8 -24 11 -6 14 -10 18 -10 8z"/>
<path d="M4240 1320 c-9 -6 -10 -10 -3 -10 6 0 15 5 18 10 8 12 4 12 -15 0z"/>
<path d="M4156 1298 c3 -5 10 -6 15 -3 13 9 11 12 -6 12 -8 0 -12 -4 -9 -9z"/>
<path d="M4133 1286 c0 -8 5 -14 11 -13 6 1 10 -4 9 -10 -2 -7 2 -13 7 -13 16
0 12 15 -8 33 -15 14 -19 14 -19 3z"/>
<path d="M3965 1260 c3 -5 8 -10 11 -10 2 0 4 5 4 10 0 6 -5 10 -11 10 -5 0
-7 -4 -4 -10z"/>
<path d="M4000 1260 c-8 -5 -12 -11 -9 -14 3 -3 14 1 25 9 21 16 8 20 -16 5z"/>
<path d="M4071 1247 c-13 -21 -12 -21 5 -5 10 10 16 20 13 22 -3 3 -11 -5 -18
-17z"/>
<path d="M3944 1239 c-3 -6 -3 -13 0 -16 3 -4 6 0 6 7 0 9 6 8 20 -5 11 -10
20 -14 20 -9 0 16 -38 35 -46 23z"/>
<path d="M4020 1240 c-9 -6 -10 -10 -3 -10 6 0 15 5 18 10 8 12 4 12 -15 0z"/>
<path d="M4030 1210 c-6 -11 -8 -20 -6 -20 3 0 10 9 16 20 6 11 8 20 6 20 -3
0 -10 -9 -16 -20z"/>
<path d="M4001 1204 c0 -11 3 -14 6 -6 3 7 2 16 -1 19 -3 4 -6 -2 -5 -13z"/>
<path d="M3935 1202 c2 -3 0 -14 -6 -26 -10 -20 -9 -20 9 1 17 20 21 21 32 8
7 -9 15 -13 18 -11 8 8 -22 33 -41 33 -9 0 -15 -2 -12 -5z"/>
<path d="M7 1154 c-4 -4 -7 -38 -7 -76 l0 -68 51 0 c44 0 56 -4 79 -28 22 -24
27 -38 29 -90 2 -54 -1 -65 -23 -87 -23 -23 -38 -27 -108 -28 l-28 0 0 -81 0
-81 44 1 c86 3 134 -46 144 -147 6 -59 -11 -108 -47 -143 -24 -23 -39 -28 -85
-29 l-56 -2 0 -73 0 -73 74 2 c40 1 79 -2 86 -6 8 -5 11 -4 7 2 -8 13 50 36
66 26 5 -3 8 -2 5 3 -4 5 9 20 27 34 77 57 114 208 81 324 -17 59 -59 115
-106 143 l-28 16 31 26 c43 36 78 121 76 185 -3 111 -50 190 -136 228 -44 19
-163 34 -176 22z"/>
<path d="M4522 1086 l3 -71 80 -2 c44 -1 85 -2 90 -2 8 -1 11 -138 10 -431 0
-237 3 -430 8 -430 4 0 7 227 7 504 l0 504 -101 -1 -100 -1 3 -70z"/>
<path d="M3933 1105 c0 -7 6 -11 14 -8 7 3 13 6 13 8 0 2 -6 5 -13 8 -8 3 -14
-1 -14 -8z"/>
<path d="M419 1043 c-2 -192 0 -955 3 -958 5 -5 55 -7 119 -6 52 1 57 3 57 24
0 22 -3 23 -69 20 l-69 -2 -1 477 c-1 262 -1 480 0 485 0 4 -8 7 -19 7 -17 0
-20 -7 -21 -47z"/>
<path d="M4459 1088 c-5 -13 -5 -138 0 -139 3 -1 42 -3 86 -4 44 -1 83 -3 87
-4 4 0 7 -190 7 -421 0 -231 3 -425 6 -430 3 -5 21 -9 40 -8 26 1 35 6 35 18
0 10 -9 20 -20 23 -19 5 -19 15 -19 338 0 184 -1 377 -1 430 l0 96 -72 1
c-126 1 -115 -4 -114 49 1 38 -3 48 -16 51 -10 2 -19 2 -19 0z"/>
<path d="M1 984 c0 -11 3 -14 6 -6 3 7 2 16 -1 19 -3 4 -6 -2 -5 -13z"/>
<path d="M4133 985 c-18 -20 -16 -35 3 -35 10 0 14 -5 10 -16 -3 -8 -2 -12 4
-9 14 8 29 -26 31 -73 l3 -42 45 -1 c79 -2 123 0 130 7 19 19 1 29 -64 34
l-70 5 -1 52 c-1 36 -7 59 -19 73 -21 23 -54 26 -72 5z"/>
<path d="M30 968 c0 -11 12 -29 26 -40 14 -12 23 -27 20 -35 -3 -8 -1 -11 4
-8 9 6 15 -30 11 -62 -3 -20 16 -15 32 8 17 24 13 117 -6 136 -6 7 -29 14 -49
17 -33 4 -38 2 -38 -16z"/>
<path d="M1 924 c0 -11 3 -14 6 -6 3 7 2 16 -1 19 -3 4 -6 -2 -5 -13z"/>
<path d="M3715 909 c-4 -6 -5 -12 -2 -15 2 -3 7 2 10 11 7 17 1 20 -8 4z"/>
<path d="M3730 888 c-10 -21 -10 -21 3 -6 8 10 18 14 22 10 5 -4 5 -1 1 6 -10
17 -14 15 -26 -10z"/>
<path d="M3775 900 c-3 -6 1 -7 9 -4 18 7 21 14 7 14 -6 0 -13 -4 -16 -10z"/>
<path d="M3613 880 c4 -24 37 -43 37 -21 0 6 -7 7 -17 4 -9 -4 -14 -2 -10 3 3
6 1 16 -4 24 -7 11 -8 8 -6 -10z"/>
<path d="M3577 864 c-10 -14 -16 -30 -14 -37 3 -7 6 -4 6 6 1 9 5 17 10 17 8
0 24 30 19 35 -2 2 -11 -8 -21 -21z"/>
<path d="M1 864 c0 -11 3 -14 6 -6 3 7 2 16 -1 19 -3 4 -6 -2 -5 -13z"/>
<path d="M3749 863 c-13 -16 -12 -17 4 -4 16 13 21 21 13 21 -2 0 -10 -8 -17
-17z"/>
<path d="M3597 843 c-10 -9 -9 -23 1 -23 5 0 9 7 9 15 0 17 -1 18 -10 8z"/>
<path d="M3667 839 c7 -7 15 -10 18 -7 3 3 -2 9 -12 12 -14 6 -15 5 -6 -5z"/>
<path d="M3713 825 c0 -8 4 -12 9 -9 5 3 6 10 3 15 -9 13 -12 11 -12 -6z"/>
<path d="M3620 826 c0 -2 9 -6 20 -9 11 -3 18 -1 14 4 -5 9 -34 13 -34 5z"/>
<path d="M1 804 c0 -11 3 -14 6 -6 3 7 2 16 -1 19 -3 4 -6 -2 -5 -13z"/>
<path d="M3610 800 c0 -5 5 -10 10 -10 6 0 10 5 10 10 0 6 -4 10 -10 10 -5 0
-10 -4 -10 -10z"/>
<path d="M3042 602 c-22 -15 -21 -47 5 -77 14 -17 20 -21 15 -10 -7 15 -6 24
6 35 14 13 15 12 9 -3 -5 -12 -3 -16 5 -11 7 5 9 2 6 -8 -4 -8 0 -15 7 -15 10
0 11 5 4 18 -12 24 -12 27 8 25 10 0 18 6 18 14 0 9 10 15 23 16 13 1 29 7 35
14 10 10 7 10 -10 1 -14 -7 -23 -8 -23 -2 0 10 -32 7 -50 -4 -6 -3 -10 0 -10
7 0 9 -3 9 -10 -2 -6 -10 -10 -11 -10 -2 0 14 -9 15 -28 4z"/>
<path d="M3564 597 c3 -10 6 -25 6 -32 0 -10 13 -13 45 -12 40 1 45 4 43 22
-2 11 -7 18 -12 17 -5 -2 -13 2 -17 10 -7 10 -9 10 -9 -2 0 -13 -1 -13 -10 0
-6 10 -10 11 -10 3 0 -15 -21 -13 -33 2 -5 6 -6 2 -3 -8z"/>
<path d="M36 592 c-9 -9 -7 -52 2 -52 14 0 48 -33 61 -58 7 -13 16 -51 20 -85
l7 -62 17 33 c31 58 17 182 -23 207 -18 11 -78 23 -84 17z"/>
<path d="M3190 581 c0 -6 4 -13 10 -16 6 -3 7 1 4 9 -7 18 -14 21 -14 7z"/>
<path d="M3139 553 c-13 -16 -12 -17 4 -4 16 13 21 21 13 21 -2 0 -10 -8 -17
-17z"/>
<path d="M690 465 c0 -69 5 -85 96 -290 l44 -100 68 2 c37 1 77 2 90 3 24 0
27 7 13 28 -5 9 -29 14 -67 14 l-59 1 -84 199 c-47 109 -88 201 -93 204 -4 3
-8 -24 -8 -61z"/>
<path d="M1 504 c0 -11 3 -14 6 -6 3 7 2 16 -1 19 -3 4 -6 -2 -5 -13z"/>
<path d="M1680 486 c0 -2 8 -10 18 -17 15 -13 16 -12 3 4 -13 16 -21 21 -21
13z"/>
<path d="M1 444 c0 -11 3 -14 6 -6 3 7 2 16 -1 19 -3 4 -6 -2 -5 -13z"/>
<path d="M2590 446 c0 -2 9 -6 20 -9 11 -3 18 -1 14 4 -5 9 -34 13 -34 5z"/>
<path d="M3026 438 c3 -5 10 -6 15 -3 13 9 11 12 -6 12 -8 0 -12 -4 -9 -9z"/>
<path d="M2587 419 c7 -7 15 -10 18 -7 3 3 -2 9 -12 12 -14 6 -15 5 -6 -5z"/>
<path d="M1 384 c0 -11 3 -14 6 -6 3 7 2 16 -1 19 -3 4 -6 -2 -5 -13z"/>
<path d="M3843 318 c4 -111 29 -163 101 -207 29 -17 59 -31 67 -31 9 0 19 -3
22 -7 20 -19 216 11 231 35 2 4 -40 7 -93 7 -68 0 -103 4 -114 14 -10 7 -17
11 -17 7 0 -9 -83 44 -98 63 -26 33 -53 103 -56 149 -3 38 -8 48 -25 50 -19 3
-20 -1 -18 -80z"/>
<path d="M1 324 c0 -11 3 -14 6 -6 3 7 2 16 -1 19 -3 4 -6 -2 -5 -13z"/>
<path d="M177 134 c-3 -4 -41 -8 -84 -10 -43 -1 -81 -3 -85 -3 -5 -1 -8 -10
-8 -22 0 -20 4 -20 57 -14 50 6 133 37 133 50 0 7 -5 6 -13 -1z"/>
</g>
</svg>
